<svg width="14" height="14" viewBox="0 0 14 14" fill="none" xmlns="http://www.w3.org/2000/svg">
<path d="M9.39978 4.59961H4.59961V9.39978H9.39978V4.59961Z" stroke="currentColor" stroke-miterlimit="10" stroke-linecap="square"/>
<path d="M0.999512 2.79958C0.999512 1.80954 1.80954 0.999512 2.79958 0.999512C3.78961 0.999512 4.59964 1.80954 4.59964 2.79958C4.59964 3.24959 4.59964 4.59964 4.59964 4.59964C4.59964 4.59964 3.3396 4.59964 2.79958 4.59964C1.80954 4.59964 0.999512 3.78961 0.999512 2.79958Z" stroke="currentColor" stroke-miterlimit="10" stroke-linecap="square"/>
<path d="M13 2.79958C13 1.80954 12.19 0.999512 11.2 0.999512C10.2099 0.999512 9.3999 1.80954 9.3999 2.79958C9.3999 3.24959 9.3999 4.59964 9.3999 4.59964C9.3999 4.59964 10.6599 4.59964 11.2 4.59964C12.19 4.59964 13 3.78961 13 2.79958Z" stroke="currentColor" stroke-miterlimit="10" stroke-linecap="square"/>
<path d="M13 11.2C13 12.19 12.19 13 11.2 13C10.2099 13 9.3999 12.19 9.3999 11.2C9.3999 10.75 9.3999 9.3999 9.3999 9.3999C9.3999 9.3999 10.6599 9.3999 11.2 9.3999C12.19 9.3999 13 10.2099 13 11.2Z" stroke="currentColor" stroke-miterlimit="10" stroke-linecap="square"/>
<path d="M0.999512 11.2C0.999512 12.19 1.80954 13 2.79958 13C3.78961 13 4.59964 12.19 4.59964 11.2C4.59964 10.75 4.59964 9.3999 4.59964 9.3999C4.59964 9.3999 3.3396 9.3999 2.79958 9.3999C1.80954 9.3999 0.999512 10.2099 0.999512 11.2Z" stroke="currentColor" stroke-miterlimit="10" stroke-linecap="square"/>
</svg>
