<svg width="102" height="32" viewBox="0 0 102 32" fill="none" xmlns="http://www.w3.org/2000/svg">
<path d="M51.6236 16.5805V9.18727C51.6236 7.91136 51.3177 6.94132 50.7058 6.27715C50.094 5.61298 49.1325 5.2809 47.8214 5.2809C46.9298 5.2809 46.2218 5.36829 45.6974 5.54307C45.1729 5.70037 44.8408 5.81398 44.7009 5.88389V16.5805H42V4.15356C42.0699 4.1186 42.2622 4.03995 42.5769 3.9176C42.8916 3.79526 43.3111 3.66417 43.8356 3.52434C44.36 3.38452 44.9719 3.26217 45.6711 3.1573C46.3704 3.05243 47.1396 3 47.9787 3C48.9402 3 49.8143 3.13109 50.6009 3.39326C51.3876 3.63795 52.0519 3.99625 52.5938 4.46817C53.1532 4.94007 53.5815 5.50811 53.8787 6.17228C54.1759 6.83645 54.3245 7.58801 54.3245 8.42697V16.5805H51.6236Z" fill="currentColor"/>
<path d="M71.8886 10C71.8886 10.9963 71.7137 11.9226 71.3641 12.779C71.032 13.6355 70.56 14.3783 69.9481 15.0075C69.3362 15.6192 68.602 16.1086 67.7454 16.4757C66.8888 16.8252 65.9448 17 64.9134 17C63.882 17 62.9293 16.8252 62.0552 16.4757C61.1986 16.1086 60.4644 15.6192 59.8525 15.0075C59.2406 14.3783 58.7599 13.6355 58.4103 12.779C58.0781 11.9226 57.912 10.9963 57.912 10C57.912 9.00374 58.0781 8.0774 58.4103 7.22097C58.7599 6.36454 59.2406 5.63046 59.8525 5.01873C60.4644 4.38951 61.1986 3.90012 62.0552 3.55056C62.9293 3.18352 63.882 3 64.9134 3C65.9448 3 66.8888 3.18352 67.7454 3.55056C68.602 3.90012 69.3362 4.38951 69.9481 5.01873C70.56 5.63046 71.032 6.36454 71.3641 7.22097C71.7137 8.0774 71.8886 9.00374 71.8886 10ZM69.0828 10C69.0828 9.30087 68.9866 8.66292 68.7943 8.08614C68.602 7.49189 68.3223 6.98502 67.9552 6.56554C67.6056 6.12859 67.1685 5.7965 66.6441 5.56929C66.1371 5.32459 65.5602 5.20225 64.9134 5.20225C64.2491 5.20225 63.6547 5.32459 63.1303 5.56929C62.6233 5.7965 62.1863 6.12859 61.8192 6.56554C61.4695 6.98502 61.1986 7.49189 61.0063 8.08614C60.814 8.66292 60.7178 9.30087 60.7178 10C60.7178 10.6991 60.814 11.3458 61.0063 11.9401C61.1986 12.5169 61.4695 13.0237 61.8192 13.4607C62.1863 13.8801 62.6233 14.2122 63.1303 14.4569C63.6547 14.6841 64.2491 14.7978 64.9134 14.7978C65.5602 14.7978 66.1371 14.6841 66.6441 14.4569C67.1685 14.2122 67.6056 13.8801 67.9552 13.4607C68.3223 13.0237 68.602 12.5169 68.7943 11.9401C68.9866 11.3458 69.0828 10.6991 69.0828 10Z" fill="currentColor"/>
<path d="M87.5834 3.99625C87.4786 4.38077 87.295 4.89638 87.0328 5.54307C86.788 6.17228 86.4996 6.88015 86.1674 7.66667C85.8353 8.45318 85.4682 9.28339 85.0661 10.1573C84.6815 11.0137 84.2882 11.8527 83.8861 12.6742C83.5015 13.4782 83.1256 14.2385 82.7585 14.9551C82.4089 15.6542 82.103 16.2397 81.8408 16.7116H79.035C78.7203 16.1523 78.3881 15.5406 78.0385 14.8764C77.7064 14.1948 77.3655 13.5131 77.0158 12.8315C76.6837 12.1323 76.3603 11.4419 76.0456 10.7603C75.7309 10.0787 75.4338 9.44944 75.1541 8.87266C74.8918 8.2784 74.6558 7.75406 74.446 7.29963C74.2538 6.84519 74.1052 6.49563 74.0003 6.25094C73.8954 6.00624 73.7905 5.74407 73.6856 5.46442C73.5807 5.18477 73.5283 4.9226 73.5283 4.6779C73.5283 4.3633 73.6332 4.07491 73.8429 3.81273C74.0527 3.55056 74.4111 3.41948 74.9181 3.41948C75.2677 3.41948 75.5387 3.45443 75.7309 3.52434C75.9232 3.59426 76.0281 3.63795 76.0456 3.65543C76.3428 4.4769 76.6837 5.37703 77.0683 6.35581C77.4704 7.33458 77.8724 8.30462 78.2745 9.26592C78.6941 10.2097 79.0961 11.1186 79.4807 11.9925C79.8653 12.8489 80.2062 13.5743 80.5034 14.1685C80.7132 13.7665 80.9842 13.1985 81.3163 12.4644C81.6659 11.7129 82.0243 10.8914 82.3914 10C82.776 9.10861 83.1606 8.19101 83.5452 7.24719C83.9298 6.30337 84.2707 5.4382 84.5679 4.65169C84.7077 4.26717 84.8825 3.97004 85.0923 3.7603C85.3021 3.53308 85.6517 3.41948 86.1412 3.41948C86.5608 3.41948 86.8929 3.49813 87.1377 3.65543C87.3999 3.81273 87.5485 3.92634 87.5834 3.99625Z" fill="currentColor"/>
<path d="M99.2991 4.65169C99.2991 4.23221 99.4215 3.92634 99.6662 3.73408C99.9109 3.52434 100.261 3.41948 100.715 3.41948C101.012 3.41948 101.275 3.45443 101.502 3.52434C101.747 3.59426 101.913 3.64669 102 3.68165V16.5805C101.878 16.6155 101.659 16.6504 101.344 16.6854C101.047 16.7203 100.68 16.7553 100.243 16.7903C99.8061 16.8427 99.3253 16.8777 98.8009 16.8951C98.2764 16.9301 97.7432 16.9476 97.2013 16.9476C95.6105 16.9476 94.3168 16.7553 93.3204 16.3708C92.3414 15.9863 91.5635 15.427 90.9866 14.6929C90.2699 13.7665 89.9115 12.5343 89.9115 10.9963V4.65169C89.9115 4.23221 90.0339 3.92634 90.2786 3.73408C90.5233 3.52434 90.873 3.41948 91.3275 3.41948C91.6247 3.41948 91.8869 3.45443 92.1142 3.52434C92.3589 3.59426 92.525 3.64669 92.6124 3.68165V10.7079C92.6124 12.0362 92.9445 13.0325 93.6088 13.6966C94.2906 14.3608 95.4357 14.6929 97.044 14.6929C97.6558 14.6929 98.1453 14.6754 98.5124 14.6404C98.897 14.588 99.1592 14.5443 99.2991 14.5094V4.65169Z" fill="currentColor"/>
<path d="M42 29.0001H42.918L43.548 27.5601H46.437L47.076 29.0001H47.994L45.006 22.4121H44.988L42 29.0001ZM43.863 26.8491C44.304 25.8591 44.637 25.0851 44.997 24.1671C45.348 25.0851 45.681 25.8591 46.122 26.8491H43.863Z" fill="currentColor"/>
<path d="M51.1985 26.4801C52.5755 26.4801 53.4035 25.7421 53.4035 24.5001C53.4035 23.2581 52.5755 22.5201 51.1985 22.5201H49.2095V29.0001H50.0735V26.4801H51.1985ZM51.1715 23.2491C52.0175 23.2491 52.5215 23.7171 52.5215 24.5001C52.5215 25.2831 52.0445 25.7511 51.2435 25.7511H50.0735V23.2491H51.1715Z" fill="currentColor"/>
<path d="M55.7952 29.0001V22.5201H54.9312V29.0001H55.7952Z" fill="currentColor"/>
<path d="M59.8794 22.5201V29.0001H60.7434V26.4621H62.0934L63.4344 29.0001H64.3974L62.9304 26.3181C63.6234 26.1021 64.2534 25.4721 64.2534 24.5001C64.2534 23.2581 63.3984 22.5201 61.9764 22.5201H59.8794ZM61.9494 23.2491C62.8494 23.2491 63.3894 23.7171 63.3894 24.5001C63.3894 25.2831 62.8764 25.7511 62.0214 25.7511H60.7434V23.2491H61.9494Z" fill="currentColor"/>
<path d="M67.313 24.3921C66.071 24.3921 65.108 25.3911 65.108 26.7501C65.108 28.1451 66.071 29.1081 67.493 29.1081C68.222 29.1081 68.825 28.9191 69.176 28.7211V27.9561C68.798 28.1991 68.159 28.3791 67.547 28.3791C66.602 28.3791 66.008 27.8211 65.981 26.9391V26.9301H69.329C69.329 26.8401 69.347 26.6691 69.347 26.4891C69.347 25.3821 68.636 24.3921 67.313 24.3921ZM68.519 26.3361H65.99C66.062 25.6881 66.53 25.0941 67.304 25.0941C68.105 25.0941 68.528 25.6881 68.519 26.3361Z" fill="currentColor"/>
<path d="M70.0436 24.5001V25.1841H70.7096V29.0001H71.5466V25.1841H72.7166V24.5001H71.5196V24.0681C71.5196 23.4651 71.8706 23.1411 72.4466 23.1411C72.6626 23.1411 72.8426 23.1771 72.9146 23.1951V22.4661C72.8426 22.4481 72.6266 22.4121 72.3656 22.4121C71.3486 22.4121 70.7366 23.0421 70.7366 23.9961V24.5001H70.0436Z" fill="currentColor"/>
<path d="M75.4692 24.3921C74.2272 24.3921 73.2642 25.3911 73.2642 26.7501C73.2642 28.1451 74.2272 29.1081 75.6492 29.1081C76.3782 29.1081 76.9812 28.9191 77.3322 28.7211V27.9561C76.9542 28.1991 76.3152 28.3791 75.7032 28.3791C74.7582 28.3791 74.1642 27.8211 74.1372 26.9391V26.9301H77.4852C77.4852 26.8401 77.5032 26.6691 77.5032 26.4891C77.5032 25.3821 76.7922 24.3921 75.4692 24.3921ZM76.6752 26.3361H74.1462C74.2182 25.6881 74.6862 25.0941 75.4602 25.0941C76.2612 25.0941 76.6842 25.6881 76.6752 26.3361Z" fill="currentColor"/>
<path d="M78.6769 29.0001H79.5139V27.0381C79.5139 26.1651 80.0179 25.2021 80.8909 25.2021C81.0079 25.2021 81.0889 25.2201 81.1249 25.2291V24.4191C81.0889 24.4101 80.9809 24.3921 80.8549 24.3921C80.2069 24.3921 79.7299 24.8241 79.4689 25.4631H79.4599C79.4509 25.4361 79.4779 25.3011 79.4689 25.1301L79.4599 24.5001H78.6769V29.0001Z" fill="currentColor"/>
<path d="M83.9858 24.3921C82.7438 24.3921 81.7808 25.3911 81.7808 26.7501C81.7808 28.1451 82.7438 29.1081 84.1658 29.1081C84.8948 29.1081 85.4978 28.9191 85.8488 28.7211V27.9561C85.4708 28.1991 84.8318 28.3791 84.2198 28.3791C83.2748 28.3791 82.6808 27.8211 82.6538 26.9391V26.9301H86.0018C86.0018 26.8401 86.0198 26.6691 86.0198 26.4891C86.0198 25.3821 85.3088 24.3921 83.9858 24.3921ZM85.1918 26.3361H82.6628C82.7348 25.6881 83.2028 25.0941 83.9768 25.0941C84.7778 25.0941 85.2008 25.6881 85.1918 26.3361Z" fill="currentColor"/>
<path d="M87.2565 24.5001V29.0001H88.0935V26.7861C88.0935 25.8681 88.7235 25.1661 89.6055 25.1661C90.3525 25.1661 90.4605 25.7241 90.4605 26.3451V29.0001H91.2975V26.1741C91.2975 25.0491 90.8655 24.3921 89.7585 24.3921C88.8045 24.3921 88.2105 25.0671 88.0395 25.4721H88.0215C88.0305 25.4541 88.0575 25.3191 88.0575 25.1301L88.0395 24.5001H87.2565Z" fill="currentColor"/>
<path d="M93.2794 26.7501C93.2794 25.8051 93.9184 25.1391 94.8184 25.1391C95.4034 25.1391 95.8444 25.3371 96.1594 25.5351V24.7431C95.8894 24.5991 95.4664 24.3921 94.7734 24.3921C93.3874 24.3921 92.4244 25.3911 92.4244 26.7501C92.4244 28.1091 93.3874 29.1081 94.7734 29.1081C95.4754 29.1081 95.9164 28.8921 96.1864 28.7481V27.9651C95.9074 28.1361 95.4394 28.3611 94.8184 28.3611C93.9094 28.3611 93.2794 27.6951 93.2794 26.7501Z" fill="currentColor"/>
<path d="M99.2085 24.3921C97.9665 24.3921 97.0035 25.3911 97.0035 26.7501C97.0035 28.1451 97.9665 29.1081 99.3885 29.1081C100.118 29.1081 100.72 28.9191 101.071 28.7211V27.9561C100.694 28.1991 100.055 28.3791 99.4425 28.3791C98.4975 28.3791 97.9035 27.8211 97.8765 26.9391V26.9301H101.224C101.224 26.8401 101.243 26.6691 101.243 26.4891C101.243 25.3821 100.532 24.3921 99.2085 24.3921ZM100.415 26.3361H97.8855C97.9575 25.6881 98.4255 25.0941 99.1995 25.0941C100 25.0941 100.424 25.6881 100.415 26.3361Z" fill="currentColor"/>
<path fill-rule="evenodd" clip-rule="evenodd" d="M24.64 12.8257C24.64 13.6861 23.5955 14.1121 22.9938 13.4971L10.6757 0.907252C12.3413 0.31967 14.1333 0 16 0C19.1825 0 22.148 0.929173 24.64 2.53103V12.8257ZM29.12 6.83976V12.8257C29.12 17.7009 23.2011 20.1149 19.7916 16.6302L6.54488 3.09128C2.57636 6.00298 0 10.7006 0 16C0 19.407 1.0649 22.5653 2.88 25.1602V19.2063C2.88 14.3311 8.79893 11.9171 12.2084 15.4018L25.4369 28.9221C29.4157 26.0114 32 21.3075 32 16C32 12.593 30.9351 9.43467 29.12 6.83976ZM9.00619 18.5349L21.301 31.1009C19.642 31.6833 17.858 32 16 32C12.8175 32 9.85199 31.0708 7.36 29.469V19.2063C7.36 18.3459 8.40452 17.9199 9.00619 18.5349Z" fill="url(#paint0_radial_5415_12021)"/>
<path fill-rule="evenodd" clip-rule="evenodd" d="M24.64 12.8257C24.64 13.6861 23.5955 14.1121 22.9938 13.4971L10.6757 0.907252C12.3413 0.31967 14.1333 0 16 0C19.1825 0 22.148 0.929173 24.64 2.53103V12.8257ZM29.12 6.83976V12.8257C29.12 17.7009 23.2011 20.1149 19.7916 16.6302L6.54488 3.09128C2.57636 6.00298 0 10.7006 0 16C0 19.407 1.0649 22.5653 2.88 25.1602V19.2063C2.88 14.3311 8.79893 11.9171 12.2084 15.4018L25.4369 28.9221C29.4157 26.0114 32 21.3075 32 16C32 12.593 30.9351 9.43467 29.12 6.83976ZM9.00619 18.5349L21.301 31.1009C19.642 31.6833 17.858 32 16 32C12.8175 32 9.85199 31.0708 7.36 29.469V19.2063C7.36 18.3459 8.40452 17.9199 9.00619 18.5349Z" fill="url(#paint1_linear_5415_12021)"/>
<path fill-rule="evenodd" clip-rule="evenodd" d="M24.64 12.8257C24.64 13.6861 23.5955 14.1121 22.9938 13.4971L10.6757 0.907252C12.3413 0.31967 14.1333 0 16 0C19.1825 0 22.148 0.929173 24.64 2.53103V12.8257ZM29.12 6.83976V12.8257C29.12 17.7009 23.2011 20.1149 19.7916 16.6302L6.54488 3.09128C2.57636 6.00298 0 10.7006 0 16C0 19.407 1.0649 22.5653 2.88 25.1602V19.2063C2.88 14.3311 8.79893 11.9171 12.2084 15.4018L25.4369 28.9221C29.4157 26.0114 32 21.3075 32 16C32 12.593 30.9351 9.43467 29.12 6.83976ZM9.00619 18.5349L21.301 31.1009C19.642 31.6833 17.858 32 16 32C12.8175 32 9.85199 31.0708 7.36 29.469V19.2063C7.36 18.3459 8.40452 17.9199 9.00619 18.5349Z" fill="url(#paint2_linear_5415_12021)"/>
<defs>
<radialGradient id="paint0_radial_5415_12021" cx="0" cy="0" r="1" gradientUnits="userSpaceOnUse" gradientTransform="translate(16 16) rotate(135) scale(22.6274 22.6274)">
<stop offset="0.34" stop-color="#FF006A"/>
<stop offset="0.613333" stop-color="#E300BD"/>
<stop offset="0.766667" stop-color="#FF4CE1"/>
</radialGradient>
<linearGradient id="paint1_linear_5415_12021" x1="19.7333" y1="-1.06667" x2="16" y2="32" gradientUnits="userSpaceOnUse">
<stop offset="0.0851785" stop-color="#FFBA33"/>
<stop offset="0.553333" stop-color="#FF006A" stop-opacity="0"/>
</linearGradient>
<linearGradient id="paint2_linear_5415_12021" x1="16" y1="0" x2="16" y2="32" gradientUnits="userSpaceOnUse">
<stop offset="0.546667" stop-opacity="0"/>
<stop offset="1" stop-opacity="0.6"/>
</linearGradient>
</defs>
</svg>
