<svg width="108" height="32" viewBox="0 0 108 32" fill="none" xmlns="http://www.w3.org/2000/svg">
<path d="M51.6236 15.5805V8.18727C51.6236 6.91136 51.3177 5.94132 50.7058 5.27715C50.094 4.61298 49.1325 4.2809 47.8214 4.2809C46.9298 4.2809 46.2218 4.36829 45.6974 4.54307C45.1729 4.70037 44.8408 4.81398 44.7009 4.88389V15.5805H42V3.15356C42.0699 3.1186 42.2622 3.03995 42.5769 2.9176C42.8916 2.79526 43.3111 2.66417 43.8356 2.52434C44.36 2.38452 44.9719 2.26217 45.6711 2.1573C46.3704 2.05243 47.1396 2 47.9787 2C48.9402 2 49.8143 2.13109 50.6009 2.39326C51.3876 2.63795 52.0519 2.99625 52.5938 3.46817C53.1532 3.94007 53.5815 4.50811 53.8787 5.17228C54.1759 5.83645 54.3245 6.58801 54.3245 7.42697V15.5805H51.6236Z" fill="currentColor"/>
<path d="M71.8886 9C71.8886 9.99625 71.7137 10.9226 71.3641 11.779C71.032 12.6355 70.56 13.3783 69.9481 14.0075C69.3362 14.6192 68.602 15.1086 67.7454 15.4757C66.8888 15.8252 65.9448 16 64.9134 16C63.882 16 62.9293 15.8252 62.0552 15.4757C61.1986 15.1086 60.4644 14.6192 59.8525 14.0075C59.2406 13.3783 58.7599 12.6355 58.4103 11.779C58.0781 10.9226 57.912 9.99625 57.912 9C57.912 8.00374 58.0781 7.0774 58.4103 6.22097C58.7599 5.36454 59.2406 4.63046 59.8525 4.01873C60.4644 3.38951 61.1986 2.90012 62.0552 2.55056C62.9293 2.18352 63.882 2 64.9134 2C65.9448 2 66.8888 2.18352 67.7454 2.55056C68.602 2.90012 69.3362 3.38951 69.9481 4.01873C70.56 4.63046 71.032 5.36454 71.3641 6.22097C71.7137 7.0774 71.8886 8.00374 71.8886 9ZM69.0828 9C69.0828 8.30087 68.9866 7.66292 68.7943 7.08614C68.602 6.49189 68.3223 5.98502 67.9552 5.56554C67.6056 5.12859 67.1685 4.7965 66.6441 4.56929C66.1371 4.32459 65.5602 4.20225 64.9134 4.20225C64.2491 4.20225 63.6547 4.32459 63.1303 4.56929C62.6233 4.7965 62.1863 5.12859 61.8192 5.56554C61.4695 5.98502 61.1986 6.49189 61.0063 7.08614C60.814 7.66292 60.7178 8.30087 60.7178 9C60.7178 9.69913 60.814 10.3458 61.0063 10.9401C61.1986 11.5169 61.4695 12.0237 61.8192 12.4607C62.1863 12.8801 62.6233 13.2122 63.1303 13.4569C63.6547 13.6841 64.2491 13.7978 64.9134 13.7978C65.5602 13.7978 66.1371 13.6841 66.6441 13.4569C67.1685 13.2122 67.6056 12.8801 67.9552 12.4607C68.3223 12.0237 68.602 11.5169 68.7943 10.9401C68.9866 10.3458 69.0828 9.69913 69.0828 9Z" fill="currentColor"/>
<path d="M87.5834 2.99625C87.4786 3.38077 87.295 3.89638 87.0328 4.54307C86.788 5.17228 86.4996 5.88015 86.1674 6.66667C85.8353 7.45318 85.4682 8.28339 85.0661 9.1573C84.6815 10.0137 84.2882 10.8527 83.8861 11.6742C83.5015 12.4782 83.1256 13.2385 82.7585 13.9551C82.4089 14.6542 82.103 15.2397 81.8408 15.7116H79.035C78.7203 15.1523 78.3881 14.5406 78.0385 13.8764C77.7064 13.1948 77.3655 12.5131 77.0158 11.8315C76.6837 11.1323 76.3603 10.4419 76.0456 9.7603C75.7309 9.07865 75.4338 8.44944 75.1541 7.87266C74.8918 7.2784 74.6558 6.75406 74.446 6.29963C74.2538 5.84519 74.1052 5.49563 74.0003 5.25094C73.8954 5.00624 73.7905 4.74407 73.6856 4.46442C73.5807 4.18477 73.5283 3.9226 73.5283 3.6779C73.5283 3.3633 73.6332 3.07491 73.8429 2.81273C74.0527 2.55056 74.4111 2.41948 74.9181 2.41948C75.2677 2.41948 75.5387 2.45443 75.7309 2.52434C75.9232 2.59426 76.0281 2.63795 76.0456 2.65543C76.3428 3.4769 76.6837 4.37703 77.0683 5.35581C77.4704 6.33458 77.8724 7.30462 78.2745 8.26592C78.6941 9.20974 79.0961 10.1186 79.4807 10.9925C79.8653 11.8489 80.2062 12.5743 80.5034 13.1685C80.7132 12.7665 80.9842 12.1985 81.3163 11.4644C81.6659 10.7129 82.0243 9.89139 82.3914 9C82.776 8.10861 83.1606 7.19101 83.5452 6.24719C83.9298 5.30337 84.2707 4.4382 84.5679 3.65169C84.7077 3.26717 84.8825 2.97004 85.0923 2.7603C85.3021 2.53308 85.6517 2.41948 86.1412 2.41948C86.5608 2.41948 86.8929 2.49813 87.1377 2.65543C87.3999 2.81273 87.5485 2.92634 87.5834 2.99625Z" fill="currentColor"/>
<path d="M99.2991 3.65169C99.2991 3.23221 99.4215 2.92634 99.6662 2.73408C99.9109 2.52434 100.261 2.41948 100.715 2.41948C101.012 2.41948 101.275 2.45443 101.502 2.52434C101.747 2.59426 101.913 2.64669 102 2.68165V15.5805C101.878 15.6155 101.659 15.6504 101.344 15.6854C101.047 15.7203 100.68 15.7553 100.243 15.7903C99.8061 15.8427 99.3253 15.8777 98.8009 15.8951C98.2764 15.9301 97.7432 15.9476 97.2013 15.9476C95.6105 15.9476 94.3168 15.7553 93.3204 15.3708C92.3414 14.9863 91.5635 14.427 90.9866 13.6929C90.2699 12.7665 89.9115 11.5343 89.9115 9.99625V3.65169C89.9115 3.23221 90.0339 2.92634 90.2786 2.73408C90.5233 2.52434 90.873 2.41948 91.3275 2.41948C91.6247 2.41948 91.8869 2.45443 92.1142 2.52434C92.3589 2.59426 92.525 2.64669 92.6124 2.68165V9.70787C92.6124 11.0362 92.9445 12.0325 93.6088 12.6966C94.2906 13.3608 95.4357 13.6929 97.044 13.6929C97.6558 13.6929 98.1453 13.6754 98.5124 13.6404C98.897 13.588 99.1592 13.5443 99.2991 13.5094V3.65169Z" fill="currentColor"/>
<path d="M42 30.0002H43.02L43.72 28.4002H46.93L47.64 30.0002H48.66L45.34 22.6802H45.32L42 30.0002ZM44.07 27.6102C44.56 26.5102 44.93 25.6502 45.33 24.6302C45.72 25.6502 46.09 26.5102 46.58 27.6102H44.07Z" fill="currentColor"/>
<path d="M52.2205 27.2002C53.7505 27.2002 54.6705 26.3802 54.6705 25.0002C54.6705 23.6202 53.7505 22.8002 52.2205 22.8002H50.0105V30.0002H50.9705V27.2002H52.2205ZM52.1905 23.6102C53.1305 23.6102 53.6905 24.1302 53.6905 25.0002C53.6905 25.8702 53.1605 26.3902 52.2705 26.3902H50.9705V23.6102H52.1905Z" fill="currentColor"/>
<path d="M57.328 30.0002V22.8002H56.368V30.0002H57.328Z" fill="currentColor"/>
<path d="M61.866 22.8002V30.0002H62.826V27.1802H64.326L65.816 30.0002H66.886L65.256 27.0202C66.026 26.7802 66.726 26.0802 66.726 25.0002C66.726 23.6202 65.776 22.8002 64.196 22.8002H61.866ZM64.166 23.6102C65.166 23.6102 65.766 24.1302 65.766 25.0002C65.766 25.8702 65.196 26.3902 64.246 26.3902H62.826V23.6102H64.166Z" fill="currentColor"/>
<path d="M70.1255 24.8802C68.7455 24.8802 67.6755 25.9902 67.6755 27.5002C67.6755 29.0502 68.7455 30.1202 70.3255 30.1202C71.1355 30.1202 71.8055 29.9102 72.1955 29.6902V28.8402C71.7755 29.1102 71.0655 29.3102 70.3855 29.3102C69.3355 29.3102 68.6755 28.6902 68.6455 27.7102V27.7002H72.3655C72.3655 27.6002 72.3855 27.4102 72.3855 27.2102C72.3855 25.9802 71.5955 24.8802 70.1255 24.8802ZM71.4655 27.0402H68.6555C68.7355 26.3202 69.2555 25.6602 70.1155 25.6602C71.0055 25.6602 71.4755 26.3202 71.4655 27.0402Z" fill="currentColor"/>
<path d="M73.1596 25.0002V25.7602H73.8996V30.0002H74.8296V25.7602H76.1296V25.0002H74.7996V24.5202C74.7996 23.8502 75.1896 23.4902 75.8296 23.4902C76.0696 23.4902 76.2696 23.5302 76.3496 23.5502V22.7402C76.2696 22.7202 76.0296 22.6802 75.7396 22.6802C74.6096 22.6802 73.9296 23.3802 73.9296 24.4402V25.0002H73.1596Z" fill="currentColor"/>
<path d="M79.188 24.8802C77.808 24.8802 76.738 25.9902 76.738 27.5002C76.738 29.0502 77.808 30.1202 79.388 30.1202C80.198 30.1202 80.868 29.9102 81.258 29.6902V28.8402C80.838 29.1102 80.128 29.3102 79.448 29.3102C78.398 29.3102 77.738 28.6902 77.708 27.7102V27.7002H81.428C81.428 27.6002 81.448 27.4102 81.448 27.2102C81.448 25.9802 80.658 24.8802 79.188 24.8802ZM80.528 27.0402H77.718C77.798 26.3202 78.318 25.6602 79.178 25.6602C80.068 25.6602 80.538 26.3202 80.528 27.0402Z" fill="currentColor"/>
<path d="M82.7521 30.0002H83.6821V27.8202C83.6821 26.8502 84.2421 25.7802 85.2121 25.7802C85.3421 25.7802 85.4321 25.8002 85.4721 25.8102V24.9102C85.4321 24.9002 85.3121 24.8802 85.1721 24.8802C84.4521 24.8802 83.9221 25.3602 83.6321 26.0702H83.6221C83.6121 26.0402 83.6421 25.8902 83.6321 25.7002L83.6221 25.0002H82.7521V30.0002Z" fill="currentColor"/>
<path d="M88.6509 24.8802C87.2709 24.8802 86.2009 25.9902 86.2009 27.5002C86.2009 29.0502 87.2709 30.1202 88.8509 30.1202C89.6609 30.1202 90.3309 29.9102 90.7209 29.6902V28.8402C90.3009 29.1102 89.5909 29.3102 88.9109 29.3102C87.8609 29.3102 87.2009 28.6902 87.1709 27.7102V27.7002H90.8909C90.8909 27.6002 90.9109 27.4102 90.9109 27.2102C90.9109 25.9802 90.1209 24.8802 88.6509 24.8802ZM89.9909 27.0402H87.1809C87.2609 26.3202 87.7809 25.6602 88.6409 25.6602C89.5309 25.6602 90.0009 26.3202 89.9909 27.0402Z" fill="currentColor"/>
<path d="M92.285 25.0002V30.0002H93.215V27.5402C93.215 26.5202 93.915 25.7402 94.895 25.7402C95.725 25.7402 95.845 26.3602 95.845 27.0502V30.0002H96.775V26.8602C96.775 25.6102 96.295 24.8802 95.065 24.8802C94.005 24.8802 93.345 25.6302 93.155 26.0802H93.135C93.145 26.0602 93.175 25.9102 93.175 25.7002L93.155 25.0002H92.285Z" fill="currentColor"/>
<path d="M98.9771 27.5002C98.9771 26.4502 99.6871 25.7102 100.687 25.7102C101.337 25.7102 101.827 25.9302 102.177 26.1502V25.2702C101.877 25.1102 101.407 24.8802 100.637 24.8802C99.0971 24.8802 98.0271 25.9902 98.0271 27.5002C98.0271 29.0102 99.0971 30.1202 100.637 30.1202C101.417 30.1202 101.907 29.8802 102.207 29.7202V28.8502C101.897 29.0402 101.377 29.2902 100.687 29.2902C99.6771 29.2902 98.9771 28.5502 98.9771 27.5002Z" fill="currentColor"/>
<path d="M105.565 24.8802C104.185 24.8802 103.115 25.9902 103.115 27.5002C103.115 29.0502 104.185 30.1202 105.765 30.1202C106.575 30.1202 107.245 29.9102 107.635 29.6902V28.8402C107.215 29.1102 106.505 29.3102 105.825 29.3102C104.775 29.3102 104.115 28.6902 104.085 27.7102V27.7002H107.805C107.805 27.6002 107.825 27.4102 107.825 27.2102C107.825 25.9802 107.035 24.8802 105.565 24.8802ZM106.905 27.0402H104.095C104.175 26.3202 104.695 25.6602 105.555 25.6602C106.445 25.6602 106.915 26.3202 106.905 27.0402Z" fill="currentColor"/>
<path fill-rule="evenodd" clip-rule="evenodd" d="M24.64 12.8257C24.64 13.6861 23.5955 14.1121 22.9938 13.4971L10.6757 0.907252C12.3413 0.31967 14.1333 0 16 0C19.1825 0 22.148 0.929173 24.64 2.53103V12.8257ZM29.12 6.83976V12.8257C29.12 17.7009 23.2011 20.1149 19.7916 16.6302L6.54488 3.09128C2.57636 6.00298 0 10.7006 0 16C0 19.407 1.0649 22.5653 2.88 25.1602V19.2063C2.88 14.3311 8.79893 11.9171 12.2084 15.4018L25.4369 28.9221C29.4157 26.0114 32 21.3075 32 16C32 12.593 30.9351 9.43467 29.12 6.83976ZM9.00619 18.5349L21.301 31.1009C19.642 31.6833 17.858 32 16 32C12.8175 32 9.85199 31.0708 7.36 29.469V19.2063C7.36 18.3459 8.40452 17.9199 9.00619 18.5349Z" fill="url(#paint0_radial_5961_16657)"/>
<path fill-rule="evenodd" clip-rule="evenodd" d="M24.64 12.8257C24.64 13.6861 23.5955 14.1121 22.9938 13.4971L10.6757 0.907252C12.3413 0.31967 14.1333 0 16 0C19.1825 0 22.148 0.929173 24.64 2.53103V12.8257ZM29.12 6.83976V12.8257C29.12 17.7009 23.2011 20.1149 19.7916 16.6302L6.54488 3.09128C2.57636 6.00298 0 10.7006 0 16C0 19.407 1.0649 22.5653 2.88 25.1602V19.2063C2.88 14.3311 8.79893 11.9171 12.2084 15.4018L25.4369 28.9221C29.4157 26.0114 32 21.3075 32 16C32 12.593 30.9351 9.43467 29.12 6.83976ZM9.00619 18.5349L21.301 31.1009C19.642 31.6833 17.858 32 16 32C12.8175 32 9.85199 31.0708 7.36 29.469V19.2063C7.36 18.3459 8.40452 17.9199 9.00619 18.5349Z" fill="url(#paint1_linear_5961_16657)"/>
<defs>
<radialGradient id="paint0_radial_5961_16657" cx="0" cy="0" r="1" gradientUnits="userSpaceOnUse" gradientTransform="translate(16 16) rotate(135) scale(22.6274 22.6274)">
<stop offset="0.34" stop-color="#FF006A"/>
<stop offset="0.613333" stop-color="#E300BD"/>
<stop offset="0.766667" stop-color="#FF4CE1"/>
</radialGradient>
<linearGradient id="paint1_linear_5961_16657" x1="19.7333" y1="-1.06667" x2="16" y2="32" gradientUnits="userSpaceOnUse">
<stop offset="0.0851785" stop-color="#FFBA33"/>
<stop offset="0.553333" stop-color="#FF006A" stop-opacity="0"/>
</linearGradient>
</defs>
</svg>
