<svg width="16" height="16" viewBox="0 0 16 16" fill="none" xmlns="http://www.w3.org/2000/svg">
<path d="M15.6812 14.1419L11.8851 10.3458C12.8373 9.00761 13.2519 7.36051 13.0467 5.731C12.8416 4.1015 12.0317 2.60856 10.7776 1.54812C9.52343 0.487683 7.91664 -0.0628297 6.27571 0.00571004C4.63478 0.0742498 3.07949 0.756838 1.91817 1.91817C0.756838 3.07949 0.0742498 4.63478 0.00571004 6.27571C-0.0628297 7.91664 0.487683 9.52343 1.54812 10.7776C2.60856 12.0317 4.1015 12.8416 5.731 13.0467C7.36051 13.2519 9.00761 12.8373 10.3458 11.8851L14.1419 15.6812C14.346 15.8853 14.6229 16 14.9115 16C15.2002 16 15.4771 15.8853 15.6812 15.6812C15.8853 15.4771 16 15.2002 16 14.9115C16 14.6229 15.8853 14.346 15.6812 14.1419ZM1.49143 6.56931C1.49143 5.565 1.78924 4.58324 2.34721 3.74819C2.90517 2.91314 3.69823 2.26229 4.62609 1.87796C5.55395 1.49363 6.57494 1.39307 7.55995 1.589C8.54496 1.78493 9.44975 2.26855 10.1599 2.97871C10.8701 3.68886 11.3537 4.59365 11.5496 5.57866C11.7455 6.56367 11.645 7.58467 11.2607 8.51253C10.8763 9.44039 10.2255 10.2334 9.39042 10.7914C8.55537 11.3494 7.57362 11.6472 6.56931 11.6472C5.22304 11.6456 3.93236 11.1102 2.9804 10.1582C2.02845 9.20626 1.49297 7.91557 1.49143 6.56931Z" fill="currentColor"/>
</svg>
